<?xml version="1.0" encoding="iso-8859-1"?>
<!-- Generator: Adobe Illustrator 16.0.0, SVG Export Plug-In . SVG Version: 6.00 Build 0)  -->
<!DOCTYPE svg PUBLIC "-//W3C//DTD SVG 1.1//EN" "http://www.w3.org/Graphics/SVG/1.1/DTD/svg11.dtd">
<svg version="1.1" id="Capa_1" xmlns="http://www.w3.org/2000/svg" xmlns:xlink="http://www.w3.org/1999/xlink" x="0px" y="0px"
	 width="123.697px" height="123.697px" viewBox="0 0 123.697 123.697" style="enable-background:new 0 0 123.697 123.697;"
	 xml:space="preserve">
<g>
	<g>
		<path d="M83.649,17.153L71.31,9.381l-4.449,7.065l12.34,7.772L83.649,17.153z M81.137,16.403l1.542,0.971l-0.972,1.541
			C80.995,18.29,80.765,17.274,81.137,16.403z M69.374,17.196l-1.541-0.971l0.97-1.541C69.514,15.31,69.745,16.325,69.374,17.196z
			 M70.561,11.894l0.972-1.541l1.54,0.971C72.448,12.035,71.431,12.265,70.561,11.894z M73.657,19.337
			c-1.402-0.883-1.823-2.733-0.94-4.136c0.884-1.402,2.736-1.822,4.137-0.939c1.402,0.883,1.822,2.734,0.939,4.136
			C76.91,19.8,75.058,20.221,73.657,19.337z M77.438,22.275c0.626-0.712,1.642-0.94,2.512-0.57l-0.971,1.541L77.438,22.275z"/>
		<path d="M76.429,15.376l0.233-0.37l-0.408-0.257l-0.239,0.379c-0.28-0.129-0.545-0.18-0.784-0.148
			c-0.262,0.033-0.465,0.164-0.605,0.387c-0.129,0.204-0.177,0.416-0.146,0.632c0.032,0.21,0.146,0.445,0.335,0.701l0.114,0.15
			l-0.463,0.736c-0.112-0.079-0.23-0.183-0.351-0.308c-0.141-0.146-0.254-0.29-0.34-0.428l-0.057-0.09l-0.375,0.596l0.025,0.034
			c0.164,0.25,0.42,0.493,0.763,0.724l-0.297,0.471l0.407,0.257l0.309-0.489c0.309,0.14,0.586,0.192,0.831,0.152
			c0.263-0.044,0.471-0.184,0.616-0.414c0.118-0.188,0.16-0.385,0.125-0.589c-0.035-0.2-0.16-0.442-0.383-0.741l-0.102-0.135
			l0.449-0.713c0.189,0.152,0.365,0.335,0.52,0.547l0.039,0.054l0.525-0.383l-0.037-0.054
			C76.943,15.808,76.706,15.573,76.429,15.376z M75.343,17.723c-0.034,0.053-0.13,0.206-0.452,0.094l0.354-0.562
			c0.069,0.101,0.114,0.185,0.133,0.252C75.398,17.582,75.387,17.654,75.343,17.723z M75.33,16.215
			c-0.063-0.098-0.102-0.179-0.114-0.241c-0.014-0.073,0.001-0.143,0.046-0.213c0.042-0.066,0.1-0.104,0.178-0.117
			c0.065-0.011,0.145,0,0.232,0.029L75.33,16.215z"/>
		<path d="M61.848,11.38l-0.069-7.957L46.507,7.377l0.069,7.957L61.848,11.38z M61.104,10.9l-1.908,0.494
			c0.149-0.933,0.915-1.834,1.894-2.23L61.104,10.9z M61.046,4.286l0.015,1.735c-0.98,0.11-1.757-0.392-1.922-1.241L61.046,4.286z
			 M54.154,6.521c1.734-0.448,3.151,0.467,3.165,2.044c0.014,1.58-1.381,3.223-3.115,3.671c-1.736,0.449-3.152-0.465-3.167-2.043
			C51.023,8.614,52.419,6.969,54.154,6.521z M47.309,14.469l-0.015-1.733c0.98-0.111,1.757,0.391,1.922,1.24L47.309,14.469z
			 M49.16,7.366c-0.149,0.931-0.916,1.83-1.893,2.228L47.252,7.86L49.16,7.366z"/>
		<path d="M52.903,10.503l-0.1-0.02l0.007,0.67l0.04,0.005c0.286,0.045,0.649,0.016,1.084-0.083l0.004,0.53l0.505-0.132
			l-0.005-0.552c0.35-0.133,0.625-0.306,0.817-0.511c0.208-0.223,0.312-0.467,0.309-0.729c-0.001-0.209-0.076-0.371-0.223-0.481
			c-0.144-0.104-0.392-0.174-0.755-0.207l-0.165-0.015l-0.008-0.801c0.253-0.04,0.511-0.048,0.767-0.023l0.064,0.009l0.247-0.642
			l-0.062-0.007c-0.322-0.038-0.665-0.018-1.021,0.057l-0.004-0.416L53.9,7.285l0.004,0.43c-0.322,0.119-0.583,0.281-0.775,0.479
			c-0.212,0.217-0.319,0.451-0.315,0.7c0.001,0.231,0.078,0.408,0.229,0.526c0.147,0.116,0.379,0.188,0.691,0.217l0.188,0.016
			l0.007,0.83c-0.144,0.029-0.307,0.048-0.483,0.053C53.239,10.542,53.056,10.531,52.903,10.503z M54.685,9.754
			c0.062,0.036,0.091,0.093,0.091,0.171c0.001,0.061,0.001,0.233-0.344,0.394l-0.007-0.633C54.544,9.702,54.632,9.724,54.685,9.754z
			 M53.678,8.859c-0.053-0.036-0.079-0.092-0.079-0.173c-0.001-0.075,0.028-0.142,0.09-0.207c0.052-0.057,0.126-0.109,0.221-0.153
			l0.005,0.611C53.804,8.919,53.725,8.893,53.678,8.859z"/>
		<path d="M77.632,5.73L70.153,0l-3.718,2.96l7.479,5.729L77.632,5.73z M76.022,4.986l0.934,0.716l-0.811,0.646
			C75.732,5.927,75.682,5.376,76.022,4.986z M68.047,3.702l-0.935-0.716l0.811-0.646C68.336,2.761,68.386,3.311,68.047,3.702z
			 M70.202,0.527l0.933,0.716c-0.492,0.272-1.197,0.243-1.745-0.07L70.202,0.527z M70.7,5.408c-0.851-0.65-0.94-1.654-0.203-2.242
			c0.737-0.586,2.022-0.534,2.873,0.117c0.85,0.649,0.939,1.652,0.203,2.24C72.834,6.11,71.549,6.058,70.7,5.408z M72.932,7.446
			c0.494-0.272,1.199-0.244,1.746,0.07l-0.812,0.646L72.932,7.446z"/>
		<path d="M72.969,3.787l0.195-0.155l-0.247-0.189l-0.201,0.161c-0.174-0.108-0.347-0.171-0.51-0.188
			c-0.18-0.021-0.33,0.016-0.445,0.108c-0.108,0.085-0.164,0.187-0.164,0.302c-0.001,0.111,0.05,0.247,0.152,0.404l0.062,0.094
			l-0.387,0.308c-0.067-0.056-0.136-0.125-0.203-0.206c-0.079-0.094-0.141-0.185-0.184-0.267l-0.029-0.054l-0.312,0.248l0.012,0.022
			c0.085,0.149,0.231,0.312,0.438,0.478l-0.248,0.198l0.248,0.19l0.258-0.206c0.192,0.114,0.374,0.18,0.542,0.195
			c0.181,0.016,0.334-0.024,0.457-0.123c0.098-0.077,0.146-0.173,0.145-0.282c-0.003-0.105-0.062-0.247-0.18-0.431l-0.055-0.083
			l0.375-0.299c0.111,0.104,0.21,0.223,0.292,0.353L73,4.397l0.392-0.119l-0.019-0.031C73.271,4.082,73.135,3.928,72.969,3.787z
			 M71.997,4.827c-0.027,0.021-0.109,0.086-0.312-0.018l0.295-0.235c0.037,0.061,0.059,0.11,0.063,0.146
			C72.051,4.763,72.035,4.797,71.997,4.827z M72.145,4.059c-0.03-0.06-0.049-0.106-0.05-0.141c-0.002-0.039,0.015-0.071,0.053-0.103
			c0.034-0.027,0.077-0.038,0.131-0.033c0.045,0.004,0.098,0.02,0.151,0.049L72.145,4.059z"/>
		<path d="M53.238,19.513l7.45,5.709l3.705-2.949l-7.45-5.707L53.238,19.513z M54.843,20.254l-0.93-0.714l0.807-0.644
			C55.13,19.317,55.18,19.865,54.843,20.254z M62.788,21.533l0.93,0.714l-0.807,0.643C62.499,22.47,62.45,21.921,62.788,21.533z
			 M60.64,24.697l-0.931-0.713c0.492-0.271,1.195-0.244,1.739,0.069L60.64,24.697z M60.146,19.834
			c0.846,0.649,0.936,1.647,0.201,2.232s-2.015,0.534-2.861-0.114c-0.846-0.648-0.937-1.647-0.202-2.232
			C58.018,19.134,59.3,19.186,60.146,19.834z M57.919,17.803c-0.491,0.272-1.193,0.243-1.738-0.069l0.808-0.643L57.919,17.803z"/>
		<path d="M57.93,21.401l-0.248,0.197l0.247,0.188l0.257-0.205c0.191,0.114,0.372,0.181,0.539,0.195
			c0.181,0.016,0.333-0.025,0.456-0.123c0.097-0.076,0.146-0.171,0.143-0.28c-0.002-0.106-0.062-0.247-0.179-0.431l-0.053-0.082
			l0.373-0.297c0.112,0.104,0.21,0.222,0.292,0.352l0.019,0.032l0.391-0.119l-0.019-0.031c-0.101-0.165-0.236-0.319-0.401-0.458
			l0.193-0.155l-0.246-0.188l-0.199,0.158c-0.173-0.106-0.345-0.169-0.508-0.188c-0.179-0.019-0.329,0.018-0.444,0.109
			c-0.107,0.086-0.162,0.187-0.162,0.302c-0.001,0.111,0.051,0.245,0.151,0.402l0.061,0.093l-0.386,0.309
			c-0.066-0.058-0.135-0.127-0.202-0.208c-0.08-0.093-0.141-0.183-0.184-0.265l-0.028-0.053l-0.311,0.248l0.012,0.02
			C57.578,21.075,57.724,21.234,57.93,21.401z M58.928,20.368c0.034-0.027,0.076-0.039,0.13-0.034
			c0.045,0.005,0.096,0.021,0.152,0.05l-0.285,0.226c-0.032-0.059-0.048-0.105-0.05-0.14C58.873,20.43,58.89,20.399,58.928,20.368z
			 M58.762,21.122c0.037,0.061,0.058,0.109,0.063,0.146c0.005,0.042-0.01,0.076-0.047,0.105c-0.028,0.022-0.109,0.086-0.312-0.018
			L58.762,21.122z"/>
		<path d="M50.505,20.99L36.444,16.8l-0.025,7.558l14.061,4.19L50.505,20.99z M37.102,23.92l0.006-1.648
			c0.9,0.405,1.607,1.282,1.75,2.172L37.102,23.92z M37.117,19.289l0.007-1.649l1.755,0.523
			C38.731,18.966,38.018,19.42,37.117,19.289z M43.452,25.386c-1.596-0.475-2.888-2.075-2.882-3.574
			c0.005-1.5,1.304-2.328,2.901-1.854c1.596,0.477,2.887,2.078,2.881,3.576C46.348,25.034,45.049,25.864,43.452,25.386z
			 M49.8,27.705l-1.755-0.524c0.148-0.801,0.86-1.255,1.761-1.124L49.8,27.705z M49.816,23.074c-0.9-0.405-1.608-1.282-1.75-2.171
			l1.756,0.521L49.816,23.074z"/>
		<path d="M43.841,22.521l-0.152-0.1l0.003-0.762c0.232,0.094,0.469,0.221,0.704,0.377l0.059,0.04l0.233-0.478l-0.057-0.039
			c-0.295-0.201-0.609-0.361-0.937-0.476v-0.396l-0.464-0.139l-0.002,0.406c-0.295-0.052-0.537-0.035-0.717,0.051
			c-0.196,0.095-0.296,0.262-0.297,0.499c0,0.218,0.068,0.425,0.205,0.615c0.134,0.187,0.346,0.375,0.632,0.565l0.172,0.109
			l-0.002,0.788c-0.133-0.046-0.282-0.112-0.444-0.199c-0.188-0.101-0.356-0.205-0.496-0.312l-0.091-0.069l-0.003,0.636l0.039,0.027
			c0.261,0.19,0.596,0.353,0.995,0.482L43.22,24.65l0.463,0.14l0.003-0.525c0.323,0.055,0.577,0.036,0.755-0.059
			c0.193-0.104,0.291-0.281,0.292-0.528c0.002-0.199-0.066-0.391-0.199-0.571C44.399,22.935,44.174,22.742,43.841,22.521z
			 M43.225,22.119c-0.102-0.075-0.175-0.14-0.216-0.194c-0.049-0.064-0.073-0.132-0.072-0.208c0-0.07,0.027-0.117,0.086-0.148
			c0.048-0.026,0.117-0.036,0.204-0.03L43.225,22.119z M43.684,23.695l0.002-0.603c0.107,0.075,0.187,0.143,0.236,0.199
			c0.057,0.066,0.083,0.134,0.083,0.209C44.005,23.557,44.004,23.721,43.684,23.695z"/>
		<path d="M90.494,36.911c-1.835-1.041-4.169-0.397-5.21,1.439c-0.056,0.099-5.663,9.736-18.403,11.794
			c-0.996-0.606-2.084-1.062-3.194-1.334l-2.452,2.469l-2.378-2.496c-0.008,0.003-0.017,0.003-0.024,0.004
			c-0.981,0.235-1.949,0.611-2.849,1.109c-12.011-2.298-17.352-11.274-17.571-11.65c-1.042-1.837-3.375-2.481-5.21-1.439
			c-1.836,1.041-2.481,3.374-1.439,5.21c0.272,0.48,6.21,10.689,19.437,14.575c-0.026,0.255-0.041,0.514-0.041,0.777v21.732
			c0,1.041,0.205,2.009,0.563,2.898c-0.025,0.191-0.059,0.383-0.058,0.581l0.037,36.603c0.003,2.494,2.024,4.514,4.518,4.514
			c0.001,0,0.003,0,0.004,0c2.495-0.004,4.516-2.027,4.513-4.521l-0.032-31.408c0.177,0.008,0.354,0.021,0.533,0.021
			c0.037,0,0.074-0.004,0.11-0.005l0.029,31.399c0.002,2.494,2.024,4.514,4.518,4.514c0.001,0,0.003,0,0.004,0
			c2.495-0.004,4.517-2.027,4.514-4.521l-0.033-36.375c0.592-1.097,0.937-2.338,0.937-3.697V57.369c0-0.116-0.013-0.229-0.018-0.344
			c14.07-3.598,20.359-14.408,20.64-14.903C92.975,40.286,92.331,37.952,90.494,36.911z M61.258,70.766h-0.046l-2.374-3.25
			l2.374-15.872h0.046l2.374,15.872L61.258,70.766z"/>
		<circle cx="61.235" cy="38.394" r="9.845"/>
	</g>
</g>
<g>
</g>
<g>
</g>
<g>
</g>
<g>
</g>
<g>
</g>
<g>
</g>
<g>
</g>
<g>
</g>
<g>
</g>
<g>
</g>
<g>
</g>
<g>
</g>
<g>
</g>
<g>
</g>
<g>
</g>
</svg>
