<?xml version="1.0" encoding="iso-8859-1"?>
<!-- Generator: Adobe Illustrator 19.0.0, SVG Export Plug-In . SVG Version: 6.00 Build 0)  -->
<svg version="1.1" id="Layer_1" xmlns="http://www.w3.org/2000/svg" xmlns:xlink="http://www.w3.org/1999/xlink" x="0px" y="0px"
	 viewBox="0 0 512.001 512.001" style="enable-background:new 0 0 512.001 512.001;" xml:space="preserve">
<g>
	<g>
		<g>
			<rect x="247.471" y="460.778" width="17.067" height="51.2"/>
			<path d="M503.445,388.871c-0.009-0.008-0.017-0.017-0.026-0.017l-72.559-66.782c-21.333-19.772-54.724-19.738-75.955,0.017
				l-30.43,27.733l-30.148-27.75c-21.325-19.772-54.699-19.729-75.989,0.043l-30.396,27.699l-30.148-27.742
				c-21.333-19.772-54.724-19.738-75.955,0.017L8.512,388.914c-5.359,4.984-8.371,11.759-8.508,19.081
				c-0.128,7.313,2.654,14.191,7.825,19.362c5.222,5.222,12.075,7.851,18.918,7.851c5.623,0,11.196-1.886,15.923-5.444v73.685
				c0,4.719,3.814,8.533,8.533,8.533h51.2h34.133h51.2h42.667v-59.733c0-4.719,3.814-8.533,8.533-8.533h34.133
				c4.719,0,8.533,3.814,8.533,8.533v59.733h42.667h51.2h34.133h51.2c4.719,0,8.533-3.814,8.533-8.533v-73.685
				c4.753,3.558,10.325,5.427,15.94,5.427c6.852,0,13.696-2.628,18.901-7.834c5.18-5.18,7.962-12.075,7.817-19.396
				C511.859,400.63,508.821,393.846,503.445,388.871z M33.216,415.598c-3.831,3.482-9.677,3.345-13.321-0.307
				c-1.869-1.869-2.876-4.352-2.825-6.989c0.051-2.654,1.143-5.094,3.012-6.835l73.318-66.816
				c7.407-6.895,16.905-10.334,26.419-10.334c9.489,0,18.987,3.422,26.402,10.3l29.065,26.735l-14.848,13.534l-17.408-15.65
				c-13.918-12.621-32.606-12.612-46.438-0.009L33.216,415.598z M179.204,494.915h-34.133v-42.667c0-4.719-3.814-8.533-8.533-8.533
				h-34.133c-4.719,0-8.533,3.814-8.533,8.533v42.667H59.738v-79.462l48.273-43.546c2.526-2.295,5.257-3.738,8.055-4.437
				c0.222-0.06,0.444-0.171,0.674-0.213c0.094-0.017,0.179-0.009,0.273-0.026c4.975-0.93,10.103,0.614,14.575,4.676l0.29,0.256
				l15.727,14.413l-2.551,2.33v0.008h-0.009c-5.359,4.984-8.371,11.759-8.508,19.081c-0.094,5.487,1.442,10.726,4.403,15.181
				c0.981,1.485,2.125,2.884,3.422,4.181c1.254,1.254,2.611,2.338,4.028,3.294c0.444,0.299,0.922,0.503,1.374,0.776
				c1.007,0.589,2.014,1.161,3.072,1.613c0.58,0.247,1.178,0.41,1.775,0.614c0.973,0.333,1.937,0.657,2.935,0.879
				c0.674,0.145,1.34,0.222,2.014,0.316c0.947,0.137,1.886,0.239,2.842,0.273c0.29,0.008,0.58,0.085,0.879,0.085
				c0.461,0,0.913-0.102,1.374-0.128c0.794-0.034,1.579-0.094,2.372-0.213c0.794-0.111,1.579-0.273,2.364-0.461
				c0.742-0.179,1.476-0.375,2.21-0.614c0.802-0.265,1.57-0.572,2.347-0.913c0.7-0.307,1.374-0.631,2.048-0.998
				c0.751-0.41,1.476-0.862,2.193-1.357c0.333-0.222,0.691-0.384,1.015-0.623V494.915z M330.389,404.94l-50.825-45.705
				c-13.918-12.629-32.623-12.604-46.438-0.009l-51.465,45.773c-0.008,0.009-0.017,0.009-0.026,0.017l-11.742,10.453l-0.145,0.128
				c-3.831,3.482-9.677,3.345-13.32-0.307c-1.869-1.869-2.876-4.352-2.825-6.989c0.051-2.645,1.143-5.094,3.021-6.835l12.237-11.162
				l24.806-22.605c0.009-0.008,0.009-0.008,0.009-0.017l36.198-32.981c0.008-0.026,0.034-0.043,0.051-0.06
				c7.415-6.895,16.913-10.334,26.428-10.334c9.489,0,18.987,3.43,26.402,10.3l63.403,58.359c0.009,0,0.009,0.009,0.009,0.017
				l9.148,8.405c1.937,1.801,3.038,4.25,3.089,6.895c0.051,2.637-0.956,5.129-2.842,7.006c-3.652,3.661-9.481,3.772-13.321,0.307
				l-11.844-10.658H330.389z M452.271,494.915h-34.133v-42.667c0-4.719-3.814-8.533-8.533-8.533h-34.133
				c-4.719,0-8.533,3.814-8.533,8.533v42.667h-34.133v-65.007c0.384,0.282,0.811,0.478,1.203,0.734
				c0.64,0.435,1.289,0.836,1.954,1.203c0.802,0.444,1.613,0.819,2.449,1.169c0.674,0.282,1.357,0.563,2.048,0.794
				c0.862,0.282,1.724,0.486,2.603,0.683c0.708,0.154,1.408,0.316,2.125,0.41c0.887,0.12,1.775,0.154,2.671,0.179
				c0.717,0.026,1.425,0.077,2.142,0.043c0.905-0.043,1.801-0.188,2.697-0.324c0.7-0.102,1.391-0.171,2.082-0.333
				c0.93-0.213,1.835-0.546,2.739-0.862c0.623-0.213,1.254-0.375,1.869-0.64c1.024-0.452,1.997-1.033,2.97-1.604
				c0.444-0.273,0.922-0.469,1.348-0.768c1.391-0.939,2.714-2.005,3.942-3.234c1.818-1.818,3.217-3.891,4.42-6.067
				c2.236-4.045,3.49-8.559,3.396-13.32v-0.009c-0.136-7.33-3.174-14.114-8.576-19.115l-2.261-2.091l16.452-14.848
				c2.133-1.937,4.42-3.234,6.758-4.036c5.402-1.852,11.127-0.7,16.12,3.49c0.222,0.179,0.452,0.316,0.666,0.512l47.65,43.665
				V494.915z M492.096,415.291c-3.644,3.661-9.489,3.772-13.32,0.307l-62.677-56.363c-6.963-6.315-15.112-9.463-23.253-9.463
				s-16.265,3.157-23.185,9.455l-17.775,15.812l-14.797-13.611l29.38-26.778c14.797-13.764,37.982-13.781,52.821-0.043
				l72.576,66.799c1.929,1.8,3.021,4.241,3.072,6.878C494.989,410.922,493.982,413.413,492.096,415.291z"/>
			<path d="M247.471,101.107V63.833c-9.233,2.68-17.067,9.481-17.067,18.645C230.404,91.626,238.238,98.427,247.471,101.107z"/>
			<path d="M281.604,139.358c0-9.156-7.834-15.957-17.067-18.628v37.308C273.754,155.451,281.604,148.804,281.604,139.358z"/>
			<path d="M201.399,204.469c16.307,25.336,32.137,52.625,47.044,81.075c1.476,2.816,4.386,4.574,7.561,4.574
				c3.174,0,6.084-1.758,7.561-4.574c14.908-28.45,30.737-55.74,47.044-81.075c8.841-13.722,17.51-26.701,26.522-39.68
				c14.114-20.326,21.274-41.327,21.274-62.404c0-56.44-45.935-102.357-102.4-102.366c-56.465,0.009-102.4,45.926-102.4,102.366
				c0,21.077,7.159,42.078,21.274,62.404C183.77,177.589,192.448,190.577,201.399,204.469z M247.471,46.313v-3.661
				c0-4.719,3.814-8.533,8.533-8.533c4.719,0,8.533,3.814,8.533,8.533v3.9c3.243,0.759,6.17,1.886,8.798,3.311
				c0.657-4.062,4.019-7.211,8.269-7.211c4.719,0,8.533,3.814,8.533,8.533v34.133c0,4.71-3.814,8.533-8.533,8.533
				c-4.719,0-8.533-3.823-8.533-8.533v-13.79c-2.85-3.217-5.649-5.521-8.533-6.938v38.613c17.681,3.277,34.133,16.469,34.133,36.156
				s-16.452,32.879-34.133,36.156v3.669c0,4.71-3.814,8.533-8.533,8.533c-4.719,0-8.533-3.823-8.533-8.533v-3.874
				c-3.029-0.734-5.956-1.86-8.789-3.396c-0.631,4.087-4.011,7.27-8.277,7.27c-4.719,0-8.533-3.823-8.533-8.533v-34.133
				c0-4.719,3.814-8.533,8.533-8.533s8.533,3.814,8.533,8.533v13.764c2.79,3.098,5.615,5.393,8.533,6.844v-38.502
				c-17.681-3.277-34.133-16.469-34.133-36.147C213.338,62.79,229.79,49.589,247.471,46.313z"/>
		</g>
	</g>
</g>
<g>
</g>
<g>
</g>
<g>
</g>
<g>
</g>
<g>
</g>
<g>
</g>
<g>
</g>
<g>
</g>
<g>
</g>
<g>
</g>
<g>
</g>
<g>
</g>
<g>
</g>
<g>
</g>
<g>
</g>
</svg>
