<?xml version="1.0" encoding="iso-8859-1"?>
<!-- Generator: Adobe Illustrator 19.0.0, SVG Export Plug-In . SVG Version: 6.00 Build 0)  -->
<svg version="1.1" id="Layer_1" xmlns="http://www.w3.org/2000/svg" xmlns:xlink="http://www.w3.org/1999/xlink" x="0px" y="0px"
	 viewBox="0 0 512 512" style="enable-background:new 0 0 512 512;" xml:space="preserve">
<g>
	<g>
		<path d="M478.75,126.098l-50.228-25.114V83.478c0-9.223-7.479-16.696-16.696-16.696H372.87V50.087
			C372.87,22.468,350.402,0,322.783,0H89.044C61.424,0,38.957,22.468,38.957,50.087v428.522H22.261
			c-9.22,0-16.696,7.475-16.696,16.696S13.04,512,22.261,512h367.304c9.22,0,16.696-7.475,16.696-16.696
			s-7.475-16.696-16.696-16.696H372.87V300.522h16.696c9.206,0,16.696,7.49,16.696,16.696v77.913
			c0,27.619,22.468,50.087,50.087,50.087c27.619,0,50.087-22.468,50.087-50.087V170.897
			C506.435,151.805,495.826,134.636,478.75,126.098z M205.935,389.565c-39.891,0-72.348-32.456-72.348-72.348
			c0-14.358,4.206-28.245,12.163-40.152l46.305-69.299c6.195-9.272,21.565-9.272,27.76,0l46.305,69.294
			c7.955,11.913,12.162,25.799,12.162,40.158C278.283,357.109,245.826,389.565,205.935,389.565z M306.087,150.261
			c0,9.223-7.479,16.696-16.696,16.696H122.435c-9.217,0-16.696-7.473-16.696-16.696V83.478c0-9.223,7.479-16.696,16.696-16.696
			h166.956c9.217,0,16.696,7.473,16.696,16.696V150.261z M372.87,100.174h22.261v100.174H372.87V100.174z M473.043,395.13
			c0,9.206-7.49,16.696-16.696,16.696c-9.206,0-16.696-7.49-16.696-16.696v-77.913c0-27.619-22.468-50.087-50.087-50.087H372.87
			v-33.391h38.957c9.217,0,16.696-7.473,16.696-16.696V138.32l35.294,17.647c5.695,2.843,9.228,8.565,9.228,14.929V395.13z"/>
	</g>
</g>
<g>
</g>
<g>
</g>
<g>
</g>
<g>
</g>
<g>
</g>
<g>
</g>
<g>
</g>
<g>
</g>
<g>
</g>
<g>
</g>
<g>
</g>
<g>
</g>
<g>
</g>
<g>
</g>
<g>
</g>
</svg>
