<?xml version="1.0" encoding="iso-8859-1"?>
<!-- Generator: Adobe Illustrator 19.0.0, SVG Export Plug-In . SVG Version: 6.00 Build 0)  -->
<svg version="1.1" id="Layer_1" xmlns="http://www.w3.org/2000/svg" xmlns:xlink="http://www.w3.org/1999/xlink" x="0px" y="0px"
	 viewBox="0 0 503.513 503.513" style="enable-background:new 0 0 503.513 503.513;" xml:space="preserve">
<g>
	<g>
		<path d="M501.089,281.119c0,0-8.393-20.144-9.233-20.144c-0.839-1.679-1.679-3.357-2.518-5.036
			c-12.59-17.626-46.164-26.859-101.561-25.18l-9.233,60.433c-5.875,0-10.911,0.839-16.787,0.839l10.072-66.308l-28.538-13.43
			l-25.18,41.967c-2.518,1.679-5.036,3.357-7.554,3.357c-1.679,0-3.357,0-4.197-0.839c-4.197-2.518-5.036-7.554-2.518-11.751
			l23.502-40.289l-18.466-9.233l-24.341,41.128c-2.518,2.518-5.036,4.197-7.554,4.197c-1.679,0-3.357,0-4.197-0.839
			c-4.197-2.518-5.036-7.554-2.518-11.751l23.502-39.449l-18.466-9.233l-24.341,40.289c-2.518,2.518-5.036,4.197-7.554,4.197
			c-1.679,0-3.357,0-4.197-0.839c-4.197-2.518-5.875-7.554-3.357-11.751l23.502-38.61l-18.466-9.233L217.39,203.06
			c-2.518,2.518-5.036,4.197-7.554,4.197c-1.679,0-3.357,0-4.197-0.839c-4.197-2.518-5.875-7.554-3.357-11.751l22.662-37.771
			l-22.662-10.911c-4.197-1.679-8.393-0.839-10.911,3.357c-1.679,2.518-22.662,35.252-62.951,46.164l26.859,45.325h29.377
			c2.518,0,5.036,1.679,6.715,3.357l32.734,48.682c-6.715,0-14.269,0-20.984-0.839l-22.662-34.413h-24.341l-5.036,7.554
			l-15.108,25.18c-6.715,0-13.43-0.839-20.144-0.839l26.02-40.289l-30.216-50.361c-5.036,0.839-10.911,0.839-16.787,0
			l-33.574,50.361l24.341,38.61c-6.715,0-13.43-0.839-20.144-0.839l-19.305-29.377H7.554c-3.357,15.948-5.875,28.538-6.715,31.056
			v0.839C0,290.352,0,291.191,0,291.191v50.361c0,4.197,3.357,8.393,8.393,8.393c1.679,0,203.961,4.197,333.22,8.393
			c5.036,0,10.072,0,14.269,0c72.184,0,111.633-17.626,132.616-31.895C501.928,316.372,506.964,297.906,501.089,281.119z
			 M478.426,313.014c-20.144,14.269-60.433,31.056-135.974,28.538c-114.99-3.357-286.216-7.554-325.666-8.393v-32.734
			c10.072,0.839,20.144,1.679,30.216,1.679c14.269,0.839,28.538,1.679,43.646,2.518c17.626,0.839,35.253,1.679,52.879,2.518
			c20.144,0.839,39.449,1.679,59.593,1.679c20.984,0.839,41.967,0.839,62.111,0.839c18.466,0,36.931,0,55.397,0
			c9.233,0,18.466,0,27.698,0c9.233,0,17.626-0.839,26.02-1.679c9.233-0.839,18.466-1.679,28.538-3.357
			c4.197-0.839,8.393-0.839,12.59-1.679c19.305-2.518,40.289-4.197,57.915-12.59c4.197-1.679,7.554-4.197,11.751-5.875
			c0,0,0,0,0,0.839C488.498,297.067,485.98,307.139,478.426,313.014z"/>
	</g>
</g>
<g>
	<g>
		<path d="M31.056,177.04c-7.554-0.839-14.269-10.911-14.269-20.144c0-5.036-3.357-8.393-8.393-8.393
			c-5.036,0-8.393,3.357-8.393,8.393c0,12.59,7.554,27.698,20.144,34.413c-3.357,15.108-6.715,32.734-10.072,49.521h35.252
			l30.216-45.325C62.951,192.149,31.056,177.04,31.056,177.04z"/>
	</g>
</g>
<g>
</g>
<g>
</g>
<g>
</g>
<g>
</g>
<g>
</g>
<g>
</g>
<g>
</g>
<g>
</g>
<g>
</g>
<g>
</g>
<g>
</g>
<g>
</g>
<g>
</g>
<g>
</g>
<g>
</g>
</svg>
