<svg version="1.1" id="Uploaded to svgrepo.com" xmlns="http://www.w3.org/2000/svg" xmlns:xlink="http://www.w3.org/1999/xlink" x="0px" y="0px"
	 width="32px" height="32px" viewBox="0 0 32 32" style="enable-background:new 0 0 32 32;" xml:space="preserve">
<style type="text/css">
	.puchipuchi_een{fill:#111918;}
</style>
<path class="puchipuchi_een" d="M30.838,18.634h0.002l-2.107-9.173C28.081,7.458,26.221,6,24,6c-1.63,0-3.065,0.792-3.977,2h-8.045
	C11.065,6.792,9.63,6,8,6C5.779,6,3.919,7.458,3.267,9.461L1.16,18.633h0.002C1.06,19.073,1,19.529,1,20c0,3.314,2.686,6,6,6
	c2.611,0,4.827-1.671,5.651-4h6.698c0.825,2.329,3.04,4,5.651,4c3.314,0,6-2.686,6-6C31,19.529,30.94,19.073,30.838,18.634z M10,16
	H9v1c0,0.552-0.447,1-1,1s-1-0.448-1-1v-1H6c-0.553,0-1-0.448-1-1s0.447-1,1-1h1v-1c0-0.552,0.447-1,1-1s1,0.448,1,1v1h1
	c0.553,0,1,0.448,1,1S10.553,16,10,16z M23,17c-0.552,0-1-0.448-1-1s0.448-1,1-1s1,0.448,1,1S23.552,17,23,17z M23,14
	c-0.552,0-1-0.448-1-1s0.448-1,1-1s1,0.448,1,1S23.552,14,23,14z M26,17c-0.552,0-1-0.448-1-1s0.448-1,1-1s1,0.448,1,1
	S26.552,17,26,17z M26,14c-0.552,0-1-0.448-1-1s0.448-1,1-1s1,0.448,1,1S26.552,14,26,14z"/>
</svg>