<?xml version="1.0" encoding="iso-8859-1"?>
<!-- Generator: Adobe Illustrator 16.0.0, SVG Export Plug-In . SVG Version: 6.00 Build 0)  -->
<!DOCTYPE svg PUBLIC "-//W3C//DTD SVG 1.1//EN" "http://www.w3.org/Graphics/SVG/1.1/DTD/svg11.dtd">
<svg version="1.1" id="Capa_1" xmlns="http://www.w3.org/2000/svg" xmlns:xlink="http://www.w3.org/1999/xlink" x="0px" y="0px"
	 width="45.922px" height="45.923px" viewBox="0 0 45.922 45.923" style="enable-background:new 0 0 45.922 45.923;"
	 xml:space="preserve">
<g>
	<g>
		<path d="M33.74,27.529c1.063-0.864,1.681-2.059,1.681-3.715c0-2.492-3.072-5.409-6.164-7.716c0.699-0.52,1.109-1.252,1.109-2.293
			c0-2.982-7.405-6.993-7.405-6.993s-7.405,4.01-7.405,6.993c0,1.041,0.41,1.773,1.11,2.293c-3.093,2.307-6.165,5.224-6.165,7.716
			c0,1.656,0.618,2.851,1.681,3.715c-2.327,2.147-4.105,4.467-4.105,6.537c0,5.075,4.785,6.563,11.241,6.9v2.715
			c0,1.238,0.968,2.241,2.206,2.241H24.4c1.237,0,1.956-1.003,1.956-2.241V40.98c6.583-0.312,11.49-1.772,11.49-6.914
			C37.844,31.996,36.067,29.677,33.74,27.529z M15.082,36.619c-1.422,0-2.576-1.153-2.576-2.575s1.153-2.575,2.576-2.575
			c1.422,0,2.575,1.153,2.575,2.575S16.504,36.619,15.082,36.619z M18.111,24.054c-1.266,0-2.292-1.026-2.292-2.292
			s1.026-2.292,2.292-2.292s2.292,1.026,2.292,2.292S19.377,24.054,18.111,24.054z M21.322,13.409c0-0.836,0.677-1.513,1.513-1.513
			s1.513,0.677,1.513,1.513c0,0.835-0.678,1.513-1.513,1.513S21.322,14.244,21.322,13.409z M25.478,37.523
			c-0.548,0-0.992-0.443-0.992-0.992c0-0.547,0.444-0.991,0.992-0.991s0.991,0.444,0.991,0.991
			C26.469,37.08,26.026,37.523,25.478,37.523z M25.333,30.096c-0.824,0-1.493-0.668-1.493-1.492s0.668-1.492,1.493-1.492
			s1.492,0.668,1.492,1.492S26.157,30.096,25.333,30.096z M28.319,23.433c-0.988,0-1.79-0.802-1.79-1.79
			c0-0.989,0.802-1.791,1.79-1.791s1.791,0.802,1.791,1.791C30.11,22.632,29.309,23.433,28.319,23.433z M33.037,35.988
			c-1.092,0-1.977-0.885-1.977-1.977s0.885-1.977,1.977-1.977c1.093,0,1.978,0.885,1.978,1.977S34.129,35.988,33.037,35.988z"/>
		<path d="M20.913,4.532l-0.364,2.123c-0.022,0.13,0.031,0.262,0.138,0.339c0.107,0.078,0.25,0.088,0.366,0.027l1.907-1.002
			l1.907,1.002c0.117,0.062,0.259,0.051,0.366-0.027c0.107-0.077,0.16-0.209,0.139-0.339l-0.365-2.123l1.543-1.504
			c0.096-0.093,0.129-0.23,0.088-0.356s-0.149-0.218-0.28-0.237l-2.132-0.31l-0.953-1.931C23.213,0.075,23.093,0,22.96,0
			c-0.133,0-0.253,0.075-0.312,0.193l-0.954,1.932l-2.132,0.31c-0.131,0.02-0.24,0.111-0.281,0.237s-0.007,0.264,0.088,0.356
			L20.913,4.532z"/>
	</g>
</g>
<g>
</g>
<g>
</g>
<g>
</g>
<g>
</g>
<g>
</g>
<g>
</g>
<g>
</g>
<g>
</g>
<g>
</g>
<g>
</g>
<g>
</g>
<g>
</g>
<g>
</g>
<g>
</g>
<g>
</g>
</svg>
