<?xml version="1.0" encoding="iso-8859-1"?>
<!-- Generator: Adobe Illustrator 19.1.0, SVG Export Plug-In . SVG Version: 6.00 Build 0)  -->
<svg version="1.1" id="Capa_1" xmlns="http://www.w3.org/2000/svg" xmlns:xlink="http://www.w3.org/1999/xlink" x="0px" y="0px"
	 viewBox="0 0 231.779 231.779" style="enable-background:new 0 0 231.779 231.779;" xml:space="preserve">
<g>
	<g>
		<g>
			<path style="fill:#010002;" d="M140.501,45.881v0.322l-52.173,0.274l1.602-3.039l0,0l2.912-3.078l41.934-0.215L146.578,0
				L83.55,0.342l9.028,39.042c-6.526-7.308-22.569-22.833-37.156-17.459l1.583,4.377C69.413,21.7,84.586,37.322,89.911,43.438
				c-8.881,3.273-20.4,5.657-27.229-0.449l-3.087,3.517c4.055,3.635,9.194,4.885,14.606,4.866c3.166,0,6.429-0.518,9.575-1.212
				c-29.643,20.351-50.336,65.548-50.14,99.792c0.225,45.441,37.283,82.069,82.665,81.825c45.451-0.215,82.069-37.254,81.845-82.714
				C197.93,112.425,173.719,63.36,140.501,45.881z M139.504,176.439c-4.357,3.869-9.809,6.312-16.238,7.406l0.078,13.082
				l-14.059,0.078l-0.078-13.072c-6.351-1.075-12.056-3.732-17.02-7.855c-5.95-5.09-9.008-10.991-9.164-17.537l0.264-3.586
				l13.659-0.059l0.059,1.368c0.098,5.422,1.739,9.477,5.022,12.359c3.283,2.872,7.972,4.318,14.01,4.318
				c6.028-0.068,10.747-1.563,14.079-4.465c3.283-2.951,4.866-6.937,4.846-12.144c-0.02-4.279-1.544-7.621-4.709-10.141
				c-3.283-2.579-8.969-4.817-16.941-6.693c-8.832-2.062-15.632-5.227-20.097-9.389c-4.543-4.279-6.908-9.79-6.947-16.306
				c-0.039-7.455,2.843-13.668,8.608-18.436c3.928-3.253,8.578-5.393,13.835-6.37l-0.059-11.392l14.049-0.078l0.059,11.021
				c6.282,0.85,11.558,3.039,15.681,6.468c5.52,4.602,8.568,11.021,9.008,19.052l0.078,1.397l-13.776,0.068l-0.156-1.143
				c-0.664-5.012-2.345-8.764-5.071-11.148c-2.667-2.345-6.605-3.576-11.714-3.527c-5.305,0.01-9.575,1.309-12.476,3.762
				c-2.902,2.423-4.279,5.706-4.26,10.102c0,3.801,1.339,6.771,4.006,9.008c2.706,2.286,7.552,4.27,14.391,5.872
				c10.014,2.306,17.596,5.764,22.628,10.268c5.032,4.572,7.63,10.386,7.65,17.293C148.815,164.266,145.718,171.134,139.504,176.439
				z"/>
		</g>
	</g>
</g>
<g>
</g>
<g>
</g>
<g>
</g>
<g>
</g>
<g>
</g>
<g>
</g>
<g>
</g>
<g>
</g>
<g>
</g>
<g>
</g>
<g>
</g>
<g>
</g>
<g>
</g>
<g>
</g>
<g>
</g>
</svg>
