<?xml version="1.0" encoding="utf-8"?>

<svg version="1.1" id="Icons" xmlns="http://www.w3.org/2000/svg" xmlns:xlink="http://www.w3.org/1999/xlink" x="0px" y="0px"
	 viewBox="0 0 32 32" style="enable-background:new 0 0 32 32;" xml:space="preserve">
<style type="text/css">
	.st0{fill:none;stroke:#000000;stroke-width:2;stroke-linecap:round;stroke-linejoin:round;stroke-miterlimit:10;}
</style>
<path d="M26.6,21.1l-3.5-1.2L27,4.2c0,0,0,0,0,0c1.1-0.7,2-1.6,2.8-2.6c0.3-0.4,0.2-1.1-0.2-1.4c-0.4-0.3-1.1-0.2-1.4,0.2
	C26.5,2.7,23.8,4,21,4c-0.6,0-1,0.4-1,1s0.4,1,1,1c1.2,0,2.5-0.2,3.6-0.6l-3.5,13.9l-7.2-2.5c0-0.1,0-0.1,0-0.2L10.6,10H12
	c0.6,0,1-0.4,1-1s-0.4-1-1-1H8.8c-1.6,0-3-0.6-4.1-1.7c-0.4-0.4-1-0.4-1.4,0s-0.4,1,0,1.4C4.7,9.1,6.5,9.9,8.4,10l2.9,5.9
	c-2.1-0.5-4.3-0.1-6.1,1.2c-2,1.5-3.2,3.7-3.2,6.2C2,27.6,5.4,31,9.7,31h15.3c2.8,0,5.1-2.3,5.1-5.1C30,23.7,28.6,21.8,26.6,21.1z
	 M20,25h-2.1c-0.4,1.7-2,3-3.9,3c-2.2,0-4-1.8-4-4s1.8-4,4-4c1.9,0,3.4,1.3,3.9,3H20c0.6,0,1,0.4,1,1S20.6,25,20,25z"/>
</svg>
